# xmcd CD database file
#
# Track frame offsets:
#	150
#	15320
#	46277
#	62669
#
# Disc length: 987 seconds
#
# Revision: 3
# Processed by: cddbd v1.5.2PL0 Copyright (c) Steve Scherf et al.
# Submitted via: CDex 1.51
#
DISCID=2603d904
DTITLE=Various Artist - Freundin - Love Songs
DYEAR=2005
DGENRE=Blues
TTITLE0=Amy Winehouse - Take The Box
TTITLE1=Amy Winehouse - You Sent Me Flying
TTITLE2=Feist - One Evening
TTITLE3=Feist - Tout Doucement
EXTD=YEAR: 2005
EXTT0=
EXTT1=
EXTT2=
EXTT3=
PLAYORDER=
